<svg width="120" height="21" fill="none" xmlns="http://www.w3.org/2000/svg"><path d="M4.328 20.12v-3.072h4.104c.736 0 1.288-.192 1.656-.576.368-.384.552-.928.552-1.632 0-.704-.184-1.24-.552-1.608-.368-.384-.92-.576-1.656-.576H4.328V10.28H8.24c1.216 0 2.296.152 3.24.456.944.288 1.688.76 2.232 1.416.544.656.816 1.544.816 2.664v.336c0 1.04-.24 1.936-.72 2.688-.48.736-1.184 1.304-2.112 1.704-.928.384-2.08.576-3.456.576H4.328Zm-3.36 0V2.336h3.84V20.12H.968Zm3.36-8.088V9.68h3.456c.752 0 1.296-.192 1.632-.576.336-.384.504-.896.504-1.536 0-.672-.168-1.2-.504-1.584-.336-.384-.88-.576-1.632-.576H4.328V2.336h3.216c2.016 0 3.56.424 4.632 1.272 1.088.848 1.632 2.056 1.632 3.624v.36c0 1.088-.28 1.96-.84 2.616-.544.656-1.288 1.128-2.232 1.416-.928.272-1.992.408-3.192.408H4.328Zm19.332 8.424c-1.152 0-2.176-.176-3.072-.528-.896-.368-1.656-.864-2.28-1.488a6.485 6.485 0 0 1-1.392-2.136 6.971 6.971 0 0 1-.48-2.568v-.552c0-.912.16-1.776.48-2.592a6.493 6.493 0 0 1 1.44-2.184 6.837 6.837 0 0 1 2.304-1.464c.896-.368 1.896-.552 3-.552 1.136 0 2.144.184 3.024.552.896.352 1.656.84 2.28 1.464a6.493 6.493 0 0 1 1.44 2.184 6.74 6.74 0 0 1 .504 2.592v.552c0 .896-.16 1.752-.48 2.568a6.31 6.31 0 0 1-1.416 2.136c-.608.624-1.36 1.12-2.256 1.488-.896.352-1.928.528-3.096.528Zm0-3.24c.752 0 1.376-.16 1.872-.48a3.01 3.01 0 0 0 1.128-1.344 4.44 4.44 0 0 0 .408-1.92c0-.752-.136-1.408-.408-1.968a3.268 3.268 0 0 0-1.176-1.368c-.496-.336-1.104-.504-1.824-.504-.704 0-1.312.168-1.824.504a3.268 3.268 0 0 0-1.176 1.368c-.256.56-.384 1.216-.384 1.968 0 .704.128 1.344.384 1.92a2.96 2.96 0 0 0 1.152 1.344c.512.32 1.128.48 1.848.48ZM33.756 20V2.48h3.864V20h-3.864Zm-1.56-14.688V2.48h5.424v2.832h-5.424ZM49.102 20v-3.888h-.648v-4.224c0-.672-.16-1.176-.48-1.512-.32-.336-.832-.504-1.536-.504a71.676 71.676 0 0 0-3.168.096c-.608.032-1.16.064-1.656.096v-3.24c.368-.032.8-.064 1.296-.096a49.28 49.28 0 0 1 3.024-.096c1.344 0 2.472.192 3.384.576.928.384 1.632.968 2.112 1.752.48.768.72 1.76.72 2.976V20h-3.048Zm-4.2.336c-.944 0-1.776-.168-2.496-.504a3.93 3.93 0 0 1-1.656-1.44c-.4-.64-.6-1.4-.6-2.28 0-.96.248-1.744.744-2.352.496-.624 1.192-1.08 2.088-1.368.896-.304 1.928-.456 3.096-.456h2.808v2.136h-2.832c-.672 0-1.192.168-1.56.504-.352.32-.528.76-.528 1.32 0 .528.176.96.528 1.296.368.32.888.48 1.56.48a2.9 2.9 0 0 0 1.152-.216c.352-.16.64-.424.864-.792.224-.368.352-.88.384-1.536l.912.96c-.08.912-.304 1.68-.672 2.304a3.586 3.586 0 0 1-1.488 1.44c-.624.336-1.392.504-2.304.504Zm3.36-15.312c-.48 0-.88-.064-1.2-.192a6.537 6.537 0 0 1-.888-.432 5.3 5.3 0 0 0-.792-.408c-.256-.128-.568-.192-.936-.192-.416 0-.792.088-1.128.264-.32.16-.592.36-.816.6l-.576-2.616c.272-.304.608-.56 1.008-.768.416-.208.928-.312 1.536-.312.48 0 .88.064 1.2.192.32.112.608.248.864.408.256.16.52.304.792.432s.584.192.936.192c.432 0 .808-.08 1.128-.24a3.52 3.52 0 0 0 .864-.624l.552 2.616a4.035 4.035 0 0 1-1.032.768c-.416.208-.92.312-1.512.312Zm13.554 15.432c-1.152 0-2.176-.176-3.072-.528-.896-.368-1.656-.864-2.28-1.488a6.485 6.485 0 0 1-1.392-2.136 6.971 6.971 0 0 1-.48-2.568v-.552c0-.912.16-1.776.48-2.592a6.493 6.493 0 0 1 1.44-2.184 6.837 6.837 0 0 1 2.304-1.464c.896-.368 1.896-.552 3-.552 1.136 0 2.144.184 3.024.552.896.352 1.656.84 2.28 1.464a6.493 6.493 0 0 1 1.44 2.184 6.74 6.74 0 0 1 .504 2.592v.552c0 .896-.16 1.752-.48 2.568a6.31 6.31 0 0 1-1.416 2.136c-.608.624-1.36 1.12-2.256 1.488-.896.352-1.928.528-3.096.528Zm0-3.24c.752 0 1.376-.16 1.872-.48a3.01 3.01 0 0 0 1.128-1.344 4.44 4.44 0 0 0 .408-1.92c0-.752-.136-1.408-.408-1.968a3.268 3.268 0 0 0-1.176-1.368c-.496-.336-1.104-.504-1.824-.504-.704 0-1.312.168-1.824.504a3.269 3.269 0 0 0-1.176 1.368c-.256.56-.384 1.216-.384 1.968 0 .704.128 1.344.384 1.92a2.96 2.96 0 0 0 1.152 1.344c.512.32 1.128.48 1.848.48ZM71.96 20V2.336h3.936V20H71.96Zm10.632 0-5.136-7.536h4.32L87.152 20h-4.56Zm-7.752-5.616v-3.096h4.32c.576 0 1.072-.112 1.488-.336.432-.24.76-.568.984-.984.24-.432.36-.928.36-1.488 0-.56-.12-1.048-.36-1.464a2.25 2.25 0 0 0-.984-.984c-.416-.24-.912-.36-1.488-.36h-4.32V2.336h4.008c1.456 0 2.72.224 3.792.672 1.072.432 1.896 1.08 2.472 1.944.576.864.864 1.952.864 3.264V8.6c0 1.296-.296 2.376-.888 3.24-.576.848-1.4 1.488-2.472 1.92-1.056.416-2.312.624-3.768.624H74.84ZM89.491 20V2.48h3.936V20h-3.936Zm3.456-7.056V9.68h6.768v3.264h-6.768Zm0-7.2V2.48h7.056v3.264h-7.056Zm17.967 14.712c-1.584 0-2.944-.272-4.08-.816-1.136-.56-2.064-1.288-2.784-2.184a9.752 9.752 0 0 1-1.608-2.928c-.336-1.056-.504-2.08-.504-3.072v-.528c0-1.088.176-2.16.528-3.216a8.769 8.769 0 0 1 1.608-2.904c.736-.864 1.656-1.552 2.76-2.064 1.12-.528 2.44-.792 3.96-.792 1.584 0 2.984.296 4.2.888 1.216.592 2.184 1.416 2.904 2.472.736 1.04 1.168 2.264 1.296 3.672h-3.96c-.112-.704-.368-1.304-.768-1.8s-.92-.88-1.56-1.152c-.624-.272-1.328-.408-2.112-.408s-1.48.136-2.088.408a4.229 4.229 0 0 0-1.536 1.152 5.519 5.519 0 0 0-.936 1.776c-.208.672-.312 1.424-.312 2.256 0 .816.104 1.568.312 2.256a5.59 5.59 0 0 0 .96 1.776c.432.496.96.88 1.584 1.152.624.256 1.336.384 2.136.384 1.216 0 2.24-.296 3.072-.888.848-.592 1.36-1.408 1.536-2.448h3.936a7.804 7.804 0 0 1-1.296 3.528c-.704 1.056-1.672 1.904-2.904 2.544-1.216.624-2.664.936-4.344.936Z" fill="#E0F1FF"/></svg>